<svg width="33" height="33" viewBox="0 0 33 33" xmlns="http://www.w3.org/2000/svg">
    <g clip-path="url(#clip0_27063_119655)">
        <path d="M18.5666 16.885L14.2199 6.73315C14.097 6.44617 13.899 6.24798 13.6257 6.13858C13.3525 6.02918 13.0724 6.03591 12.7854 6.15879C12.4984 6.28166 12.3003 6.47972 12.1908 6.75296C12.0814 7.02619 12.0882 7.3063 12.2111 7.59328L16.5322 17.7349L18.5666 16.885ZM15.0153 18.4056L11.1242 9.26841C11.0014 8.98144 10.799 8.78154 10.5173 8.66872C10.2355 8.5559 9.95111 8.56092 9.66413 8.6838C9.37715 8.80668 9.17725 9.009 9.06443 9.29078C8.95161 9.57255 8.95664 9.85693 9.07952 10.1439L12.9808 19.2555L15.0153 18.4056ZM21.2124 26.5341C23.3887 25.6023 24.9144 24.0435 25.7896 21.8576C26.6648 19.6717 26.6365 17.4906 25.7047 15.3144L23.8616 11.0097L21.7451 11.9159C21.5777 11.9876 21.4257 12.0704 21.289 12.1643C21.1523 12.2582 21.014 12.3563 20.8739 12.4588L18.6109 7.12404C18.4881 6.83707 18.2857 6.63717 18.004 6.52435C17.7222 6.41153 17.4378 6.41655 17.1508 6.53943C16.8638 6.66231 16.6639 6.86463 16.5511 7.1464C16.4383 7.42818 16.4433 7.71256 16.5662 7.99953L19.2234 14.2054L20.5392 17.229L19.8576 17.5208C18.7576 17.9918 18.0058 18.7806 17.6023 19.8873C17.1989 20.9939 17.2378 22.1092 17.7191 23.2332L19.7535 22.3833C19.518 21.8333 19.4866 21.2807 19.6593 20.7257C19.832 20.1707 20.1933 19.7754 20.7434 19.5399L22.4191 18.8436C22.7061 18.7207 22.906 18.5184 23.0188 18.2366C23.1316 17.9549 23.1266 17.6705 23.0037 17.3835L22.118 15.3644C21.9951 15.0774 21.9901 14.7931 22.1029 14.5113C22.2157 14.2295 22.4156 14.0272 22.7026 13.9043L23.6856 16.2001C24.3819 17.8263 24.407 19.4463 23.7608 21.0601C23.1147 22.6739 21.9785 23.829 20.3523 24.5253C18.7261 25.2216 17.1018 25.2449 15.4795 24.5954C13.8571 23.9458 12.6978 22.8079 12.0015 21.1817L8.34086 12.5826C8.21798 12.2956 8.01565 12.0957 7.73388 11.9829C7.45211 11.8701 7.16773 11.8751 6.88075 11.998C6.59377 12.1209 6.39387 12.3232 6.28105 12.605C6.16823 12.8868 6.17326 13.1711 6.29614 13.4581L9.99267 22.0418C10.9245 24.2181 12.4833 25.7438 14.6692 26.619C16.8551 27.4942 19.0362 27.4659 21.2124 26.5341ZM7.43448 26.1298L8.26525 24.0549C7.13815 23.6037 6.33397 22.816 5.8527 21.692C5.37144 20.568 5.35645 19.4425 5.80773 18.3154L3.73284 17.4846C3.04908 19.1923 3.06815 20.8892 3.79005 22.5752C4.51194 24.2612 5.72675 25.4461 7.43448 26.1298ZM30.4286 16.2844C31.1124 14.5767 31.0933 12.8798 30.3714 11.1938C29.6495 9.50781 28.4347 8.32293 26.727 7.63917L25.8962 9.71406C27.0233 10.1653 27.8275 10.953 28.3087 12.077C28.79 13.201 28.805 14.3265 28.3537 15.4536L30.4286 16.2844Z"/>
    </g>
    <defs>
        <clipPath id="clip0_27063_119655">
            <rect width="32.5" height="32.5" transform="translate(0.25 0.0909424)"/>
        </clipPath>
    </defs>
</svg>
