<svg width="377" height="175" viewBox="0 0 377 175" xmlns="http://www.w3.org/2000/svg">
    <path d="M10.4147 0H0V54.9555H10.4147V0Z" />
    <path d="M166.415 0H156V54.9555H166.415V0Z" />
    <path d="M96.0236 0H85.6089V54.9555H96.0236V0Z" />
    <path d="M62.0668 0H49.3179L70.439 27.9452L50.0324 54.9614H62.7754L83.1462 27.9452L62.0668 0Z" />
    <path d="M217.749 0H205L226.121 27.9452L205.715 54.9614H218.457L238.828 27.9452L217.749 0Z" />
    <path d="M266.749 0H254L275.121 27.9452L254.715 54.9614H267.457L287.828 27.9452L266.749 0Z" />
    <path d="M34.1317 0H46.8806L25.7595 27.9452L46.1661 54.9614H33.4231L13.0522 27.9452L34.1317 0Z" />
    <path d="M190.079 0H202.828L181.707 27.9452L202.114 54.9614H189.371L169 27.9452L190.079 0Z" />
    <path d="M119.741 0H132.49L111.369 27.9452L131.775 54.9614H119.032L98.6616 27.9452L119.741 0Z" />
    <path d="M181.632 60.0195H171.218V114.975H181.632V60.0195Z" />
    <path d="M62.0668 60.0195H49.3179L70.439 87.9647L50.0324 114.981H62.7754L83.1462 87.9647L62.0668 60.0195Z" />
    <path d="M233.285 60.0195H220.536L241.657 87.9647L221.251 114.981H233.994L254.364 87.9647L233.285 60.0195Z" />
    <path d="M147.676 60.0195H134.927L156.048 87.9647L135.642 114.981H148.385L168.756 87.9647L147.676 60.0195Z" />
    <path d="M318.894 60.0195H306.146L327.267 87.9647L306.86 114.981H319.603L339.974 87.9647L318.894 60.0195Z" />
    <path d="M355.65 60.0195H342.901L364.023 87.9647L343.616 114.981H356.359L376.73 87.9647L355.65 60.0195Z" />
    <path d="M119.741 60.0195H132.49L111.369 87.9647L131.775 114.981H119.032L98.6616 87.9647L119.741 60.0195Z" />
    <path d="M290.958 60.0195H303.707L282.586 87.9647L302.992 114.981H290.249L269.878 87.9647L290.958 60.0195Z" />
    <path d="M10.4147 120.038H0V174.994H10.4147V120.038Z" />
    <path d="M181.632 120.038H171.218V174.994H181.632V120.038Z" />
    <path d="M96.0236 120.038H85.6089V174.994H96.0236V120.038Z" />
    <path d="M267.242 120.038H256.827V174.994H267.242V120.038Z" fill="#A8ED8F"/>
    <path d="M62.0668 120.038H49.3179L70.439 147.983L50.0324 175H62.7754L83.1462 147.983L62.0668 120.038Z" />
    <path d="M318.894 120.038H306.146L327.267 147.983L306.86 175H319.603L339.974 147.983L318.894 120.038Z" fill="#A8ED8F"/>
    <path d="M34.1317 120.038H46.8806L25.7595 147.983L46.1661 175H33.4231L13.0522 147.983L34.1317 120.038Z" />
    <path d="M205.35 120.038H218.099L196.978 147.983L217.384 175H204.641L184.271 147.983L205.35 120.038Z" />
    <path d="M119.741 120.038H132.49L111.369 147.983L131.775 175H119.032L98.6616 147.983L119.741 120.038Z" />
    <path d="M290.958 120.038H303.707L282.586 147.983L302.992 175H290.249L269.878 147.983L290.958 120.038Z" fill="#A8ED8F"/>
    <path d="M301.415 0H291V54.9555H301.415V0Z" />
    <path d="M336.079 0H348.828L327.707 27.9452L348.114 54.9614H335.371L315 27.9452L336.079 0Z" />
</svg>
