<svg width="88" height="24" viewBox="0 0 88 24" xmlns="http://www.w3.org/2000/svg">
<g >
    <path fill-rule="evenodd" clip-rule="evenodd" fill="currentColor" d="M43.4806 1.72656V5.31417H47.723V8.02935H43.4806V16.1767C43.4806 17.9233 44.3773 18.8919 45.8915 18.8919H48.0873V21.6071H45.6435C42.4885 21.6071 40.4818 19.6023 40.4818 16.2728V1.72656H43.4806ZM28.575 16.3138V16.3084H28.5767V16.312H28.575V16.3138ZM25.5762 16.3138H28.575C28.0182 19.6735 25.2015 21.8688 21.3667 21.8688C16.5398 21.8688 13.541 17.8966 13.541 13.3725C13.541 8.84836 16.2623 5.07025 21.058 5.07025C25.8537 5.07025 28.4519 8.65607 28.4519 12.7921C28.4519 13.214 28.4224 13.7286 28.3894 14.0206H16.4791C16.7254 17.0901 18.6437 19.1892 21.3667 19.1892C23.6562 19.1892 25.1426 18.1566 25.5744 16.3138H25.5762ZM25.4183 11.7202H16.5728C17.0376 9.00504 18.4945 7.58246 21.0597 7.58246C23.625 7.58246 25.2345 9.23116 25.4201 11.7202H25.4183ZM48.1254 13.4668C48.1254 8.58842 51.4937 5.06669 56.1645 5.06669C60.8353 5.06669 64.1688 8.58664 64.1688 13.4668C64.1688 18.3471 60.8283 21.867 56.1645 21.867C51.5006 21.867 48.1254 18.3471 48.1254 13.4668ZM61.1093 13.4668C61.1093 10.1392 59.1026 7.81392 56.1645 7.81392C53.2264 7.81392 51.1867 10.1392 51.1867 13.4668C51.1867 16.7945 53.1951 19.1198 56.1645 19.1198C59.1338 19.1198 61.1093 16.7945 61.1093 13.4668ZM67.766 16.312H64.9511L64.9476 16.3084C65.1661 19.7358 67.7331 21.8688 71.2574 21.8688C74.7818 21.8688 77.1024 19.9584 77.1024 16.9886C77.1024 12.7084 74.1504 12.265 71.6459 11.8876C69.8005 11.6098 68.1962 11.3677 68.1962 9.6549C68.1962 8.39613 69.2784 7.55754 70.888 7.55754C72.22 7.55754 73.9492 8.30176 74.1678 10.1748H76.9828C76.8301 7.10352 74.4175 5.07025 70.8915 5.07025C67.6446 5.07025 65.3552 6.94684 65.3552 9.75817C65.3552 13.6378 68.1164 14.1096 70.5532 14.5262C72.4767 14.8556 74.199 15.1494 74.199 17.0598C74.199 18.2545 73.056 19.2569 71.2609 19.2569C69.2542 19.2569 67.9516 18.1904 67.7678 16.3173L67.766 16.312ZM33.0689 5.31417H30.3042V21.6053H33.303V11.2057C33.303 9.09762 34.3263 8.02935 36.3712 8.02935H39.0214V5.31417H35.9897C34.3472 5.31417 33.8095 5.96581 33.3533 6.52131C33.3065 6.57829 33.2597 6.63526 33.2128 6.68868H33.0672V5.31417H33.0689Z"/>
    <path fill-rule="evenodd" clip-rule="evenodd" fill="currentColor" d="M3.92638 5.3125H0.972656V21.5983H3.92638V5.3125Z"/>
    <path fill-rule="evenodd" clip-rule="evenodd" fill="currentColor" d="M14.1162 5.3125H10.4497L4.67578 13.4545L10.4497 21.5983H14.1162L8.34062 13.4545L14.1162 5.3125Z"/>
    <path fill-rule="evenodd" clip-rule="evenodd" fill="currentColor" d="M77.5039 21.5983H81.1705L86.9444 13.4563L81.1705 5.3125H77.5039L83.2778 13.4545L77.5039 21.5983Z"/>
</g>
</svg>
